<svg id="visual" viewBox="0 0 900 600" width="900" height="600" xmlns="http://www.w3.org/2000/svg" xmlns:xlink="http://www.w3.org/1999/xlink" version="1.1"><rect x="0" y="0" width="900" height="600" fill="#002233"></rect><path d="M0 256L16.7 267.5C33.3 279 66.7 302 100 314.8C133.3 327.7 166.7 330.3 200 305C233.3 279.7 266.7 226.3 300 213.2C333.3 200 366.7 227 400 237.2C433.3 247.3 466.7 240.7 500 236C533.3 231.3 566.7 228.7 600 243.2C633.3 257.7 666.7 289.3 700 290.8C733.3 292.3 766.7 263.7 800 237.2C833.3 210.7 866.7 186.3 883.3 174.2L900 162L900 0L883.3 0C866.7 0 833.3 0 800 0C766.7 0 733.3 0 700 0C666.7 0 633.3 0 600 0C566.7 0 533.3 0 500 0C466.7 0 433.3 0 400 0C366.7 0 333.3 0 300 0C266.7 0 233.3 0 200 0C166.7 0 133.3 0 100 0C66.7 0 33.3 0 16.7 0L0 0Z" fill="#0066FF" stroke-linecap="round" stroke-linejoin="miter"></path></svg>